<svg width="34" height="18" viewBox="0 0 34 18" fill="none" xmlns="http://www.w3.org/2000/svg">
<path d="M1.32822 7.67186H29.4551L24.7958 3.03512C24.2759 2.51768 24.2739 1.67678 24.7913 1.15689C25.3088 0.636925 26.1497 0.635 26.6696 1.15237L33.6094 8.05861C33.6098 8.05901 33.6102 8.05947 33.6106 8.05987C34.1291 8.57731 34.1308 9.42093 33.6107 9.94009C33.6102 9.94049 33.6099 9.94095 33.6095 9.94135L26.6698 16.8476C26.1499 17.3649 25.309 17.3631 24.7915 16.8431C24.274 16.3232 24.276 15.4823 24.7959 14.9648L29.4551 10.3281H1.32822C0.5947 10.3281 9.91821e-05 9.7335 9.91821e-05 8.99998C9.91821e-05 8.26646 0.5947 7.67186 1.32822 7.67186Z" fill="#E1E1E1"/>
</svg>
