<svg width="34" height="18" viewBox="0 0 34 18" fill="none" xmlns="http://www.w3.org/2000/svg">
<path d="M32.6718 7.67186H4.54488L9.20421 3.03512C9.7241 2.51768 9.7261 1.67678 9.20866 1.15689C8.69122 0.636925 7.85025 0.635 7.33036 1.15237L0.390637 8.05861C0.390173 8.05901 0.389841 8.05947 0.389442 8.05987C-0.129124 8.57731 -0.130784 9.42093 0.389309 9.94009C0.389774 9.94049 0.390106 9.94095 0.390505 9.94135L7.33022 16.8476C7.85005 17.3649 8.69102 17.3631 9.20852 16.8431C9.72596 16.3232 9.72397 15.4823 9.20408 14.9648L4.54488 10.3281H32.6718C33.4053 10.3281 33.9999 9.7335 33.9999 8.99998C33.9999 8.26646 33.4053 7.67186 32.6718 7.67186Z" fill="#E1E1E1"/>
</svg>
