<svg width="24" height="23" viewBox="0 0 24 23" fill="none" xmlns="http://www.w3.org/2000/svg">
<g clip-path="url(#clip0_10906_150)">
<path d="M1.50008 1.56511C-0.385922 3.44249 7.7635e-05 5.43678 7.7635e-05 11.4954C7.7635e-05 16.5266 -0.915925 21.5703 3.87808 22.7577C5.37508 23.1267 18.639 23.1267 20.1341 22.7558C22.1301 22.2622 23.7541 20.7107 23.9761 18.0053C24.0071 17.6277 24.0071 5.3697 23.9751 4.98445C23.739 2.10274 21.8881 0.441948 19.4491 0.105573C18.8901 0.0279481 18.7781 0.00494806 15.9101 0.000156391C5.73707 0.00494806 3.50708 -0.429177 1.50008 1.56511Z" fill="url(#paint0_linear_10906_150)"/>
<path d="M11.998 3.00832C8.36696 3.00832 4.91894 2.69878 3.60194 5.93795C3.05794 7.2758 3.13694 9.01322 3.13694 11.5011C3.13694 13.6841 3.06394 15.7359 3.60194 17.0632C4.91594 20.3043 8.39192 19.9938 11.996 19.9938C15.4729 19.9938 19.0579 20.3407 20.391 17.0632C20.936 15.712 20.8559 14.0004 20.8559 11.5011C20.8559 8.18332 21.0469 6.04145 19.3679 4.43336C17.6679 2.8042 15.3689 3.00832 11.9939 3.00832H11.998ZM11.204 4.53878C18.778 4.52728 19.7419 3.72037 19.21 14.93C19.021 18.8946 15.8709 18.4595 11.9989 18.4595C4.93894 18.4595 4.73594 18.2659 4.73594 11.4972C4.73594 4.64995 5.29594 4.54261 11.204 4.53686V4.53878ZM16.7279 5.94849C16.141 5.94849 15.6649 6.40465 15.6649 6.96721C15.6649 7.52972 16.141 7.98591 16.7279 7.98591C17.3149 7.98591 17.7909 7.52972 17.7909 6.96721C17.7909 6.40465 17.3149 5.94849 16.7279 5.94849ZM11.998 7.13971C9.48495 7.13971 7.44797 9.0928 7.44797 11.5011C7.44797 13.9093 9.48495 15.8615 11.998 15.8615C14.511 15.8615 16.5469 13.9093 16.5469 11.5011C16.5469 9.0928 14.511 7.13971 11.998 7.13971ZM11.998 8.67013C15.903 8.67013 15.908 14.332 11.998 14.332C8.09391 14.332 8.08794 8.67013 11.998 8.67013Z" fill="white"/>
</g>
<defs>
<linearGradient id="paint0_linear_10906_150" x1="1.5461" y1="21.5311" x2="23.034" y2="2.12506" gradientUnits="userSpaceOnUse">
<stop stop-color="#FFDD55"/>
<stop offset="0.5" stop-color="#FF543E"/>
<stop offset="1" stop-color="#C837AB"/>
</linearGradient>
<clipPath id="clip0_10906_150">
<rect width="24" height="23" fill="white"/>
</clipPath>
</defs>
</svg>
